<?xml version="1.0" encoding="utf-8"?>

<svg version="1.1" id="Livello_1" xmlns="http://www.w3.org/2000/svg" xmlns:xlink="http://www.w3.org/1999/xlink" x="0px" y="0px"
	 viewBox="0 0 656.1 93.2" style="enable-background:new 0 0 656.1 93.2;" xml:space="preserve">
<g>
	<path d="M87.4,72.3C80,84.7,64,93.2,47.7,93.2C20.1,93.2,0,73,0,46.6S19.8,0,46.6,0c15.6,0,29.7,7.8,38,19.4L71.2,30.6
		c-4.9-6.8-13.3-13.5-24.7-13.5C30.3,17.1,18,29.6,18,46.6c0,17.5,12.5,29.5,29.7,29.5c11.8,0,20.2-6.3,25.9-13.9L87.4,72.3z"/>
	<path d="M169.7,83.1c-7.2,6.5-16.9,10.1-27.6,10.1c-8,0-16.4-2.3-22.4-5.9c-13.5-8-22.8-22.8-22.8-40.7s9.5-32.9,23-40.9
		C126,2.1,133.4,0,141.8,0c10.1,0,19.8,3,28,10.1V1.9h17.5v89.4h-17.5L169.7,83.1L169.7,83.1z M169.2,29.9
		c-5.5-7.2-14.6-12.7-25.5-12.7c-17.3,0-28.7,13.9-28.7,29.5c0,16,12.4,29.5,29.7,29.5c9.1,0,18.4-4.6,24.5-12.7V29.9z"/>
	<path d="M290.4,72.3C283,84.7,267,93.2,250.7,93.2C223.1,93.2,203,73,203,46.6S222.8,0,249.6,0c15.6,0,29.7,7.8,38,19.4l-13.3,11.2
		c-4.9-6.8-13.3-13.5-24.7-13.5c-16.2,0-28.5,12.5-28.5,29.5c0,17.5,12.6,29.5,29.7,29.5c11.8,0,20.2-6.3,25.9-13.9L290.4,72.3z"/>
	<path d="M388.2,72.3c-7.4,12.4-23.4,20.9-39.7,20.9c-27.6,0-47.7-20.2-47.7-46.6S320.6,0,347.4,0c15.6,0,29.7,7.8,38,19.4
		l-13.3,11.2c-4.9-6.8-13.3-13.5-24.7-13.5c-16.2,0-28.5,12.5-28.5,29.5c0,17.5,12.5,29.5,29.7,29.5c11.8,0,20.2-6.3,25.9-13.9
		L388.2,72.3z"/>
	<path d="M470.1,83.1c-7.2,6.5-16.9,10.1-27.6,10.1c-8,0-16.4-2.3-22.4-5.9c-13.5-8-22.8-22.8-22.8-40.7s9.5-32.9,23-40.9
		c6.1-3.6,13.5-5.7,21.9-5.7c10.1,0,19.8,3,28,10.1V1.9h17.5v89.4h-17.5v-8.2H470.1z M469.6,29.9c-5.5-7.2-14.6-12.7-25.5-12.7
		c-17.3,0-28.7,13.9-28.7,29.5c0,16,12.4,29.5,29.7,29.5c9.1,0,18.4-4.6,24.5-12.7V29.9z"/>
	<path d="M555.5,17.9c-2.1-0.6-4.2-0.8-7-0.8c-9.3,0-19.2,6.5-24.1,15v59.2h-18.1V1.9h17.5v10.3C528.2,6.1,537.5,0,550.6,0
		c1.9,0,4.9,0.2,7,0.6L555.5,17.9z"/>
	<path d="M609.9,0c26.4,0,46.2,20,46.2,46.6s-19.8,46.6-46.2,46.6s-46.2-20-46.2-46.6S583.5,0,609.9,0z M609.9,76.1
		c16.5,0,28.1-13.1,28.1-29.5s-11.6-29.5-28.1-29.5s-28.1,13.1-28.1,29.5C581.7,63,593.3,76.1,609.9,76.1z"/>
</g>
</svg>
